<svg>
    <symbol id="cart" xmlns="http://www.w3.org/2000/svg" viewBox="0 0 21 21" fill="none">
        <g clip-path="url(#clip0_22_47)">
            <path d="M7.875 19.25C8.35825 19.25 8.75 18.8582 8.75 18.375C8.75 17.8918 8.35825 17.5 7.875 17.5C7.39175 17.5 7 17.8918 7 18.375C7 18.8582 7.39175 19.25 7.875 19.25Z" stroke="" stroke-width="2" stroke-linecap="round" stroke-linejoin="round"/>
            <path d="M17.5 19.25C17.9832 19.25 18.375 18.8582 18.375 18.375C18.375 17.8918 17.9832 17.5 17.5 17.5C17.0168 17.5 16.625 17.8918 16.625 18.375C16.625 18.8582 17.0168 19.25 17.5 19.25Z" stroke="" stroke-width="2" stroke-linecap="round" stroke-linejoin="round"/>
            <path d="M0.875 0.875H4.375L6.72 12.5913C6.80001 12.9941 7.01917 13.356 7.3391 13.6135C7.65904 13.8711 8.05936 14.0079 8.47 14H16.975C17.3856 14.0079 17.786 13.8711 18.1059 13.6135C18.4258 13.356 18.645 12.9941 18.725 12.5913L20.125 5.25H5.25" stroke="" stroke-width="2" stroke-linecap="round" stroke-linejoin="round"/>
        </g>
        <defs>
            <clipPath id="clip0_22_47">
                <rect width="21" height="21" fill="white"/>
            </clipPath>
        </defs>
    </symbol>

    <symbol id="user" xmlns="http://www.w3.org/2000/svg" viewBox="0 0 24 24" fill="none">
        <path d="M7 8C7 5.23858 9.23858 3 12 3C14.7614 3 17 5.23858 17 8C17 10.7614 14.7614 13 12 13C9.23858 13 7 10.7614 7 8ZM12 11C13.6569 11 15 9.65685 15 8C15 6.34315 13.6569 5 12 5C10.3431 5 9 6.34315 9 8C9 9.65685 10.3431 11 12 11Z" fill=""/>
        <path d="M6.34315 16.3431C4.84285 17.8434 4 19.8783 4 22H6C6 20.4087 6.63214 18.8826 7.75736 17.7574C8.88258 16.6321 10.4087 16 12 16C13.5913 16 15.1174 16.6321 16.2426 17.7574C17.3679 18.8826 18 20.4087 18 22H20C20 19.8783 19.1571 17.8434 17.6569 16.3431C16.1566 14.8429 14.1217 14 12 14C9.87827 14 7.84344 14.8429 6.34315 16.3431Z" fill=""/>
    </symbol>

    <symbol id="search" xmlns="http://www.w3.org/2000/svg" viewBox="0 0 20 20" fill="none">
        <g opacity="0.5">
            <path d="M15.5642 16.3392L10.8017 11.5758C8.68306 13.082 5.7637 12.7136 4.08573 10.7283C2.40776 8.74292 2.53097 5.80299 4.36917 3.965C6.20689 2.1262 9.14711 2.00246 11.1328 3.68034C13.1185 5.35823 13.4872 8.27787 11.9808 10.3967L16.7433 15.16L15.565 16.3383L15.5642 16.3392ZM7.90417 4.16665C6.32392 4.1663 4.96058 5.27556 4.63957 6.82286C4.31855 8.37016 5.1281 9.93023 6.57807 10.5585C8.02804 11.1868 9.71992 10.7107 10.6294 9.41838C11.5388 8.12606 11.4159 6.37276 10.335 5.22L10.8392 5.72L10.2708 5.15333L10.2608 5.14333C9.63733 4.51598 8.78867 4.16427 7.90417 4.16665Z" fill=""/>
        </g>
    </symbol>
</svg>